<?xml version="1.0" standalone="no"?>
<!DOCTYPE svg PUBLIC "-//W3C//DTD SVG 20010904//EN"
 "http://www.w3.org/TR/2001/REC-SVG-20010904/DTD/svg10.dtd">
<svg version="1.0" xmlns="http://www.w3.org/2000/svg"
 width="512.000000pt" height="512.000000pt" viewBox="0 0 512.000000 512.000000"
 preserveAspectRatio="xMidYMid meet">
<metadata>
Created by potrace 1.14, written by Peter Selinger 2001-2017
</metadata>
<g transform="translate(0.000000,512.000000) scale(0.100000,-0.100000)"
fill="#000000" stroke="none">
<path d="M366 5104 c-173 -42 -309 -181 -351 -356 -22 -95 -22 -4281 0 -4376
42 -178 179 -315 356 -357 56 -13 329 -15 2185 -15 1402 0 2140 3 2175 10 131
25 266 124 328 239 65 122 61 -27 61 2311 0 2338 4 2189 -61 2311 -62 115
-197 214 -328 239 -36 7 -772 10 -2180 9 -1800 -1 -2135 -3 -2185 -15z m3655
-1046 c-32 -57 -282 -495 -555 -975 -273 -480 -496 -877 -496 -883 0 -6 162
-285 360 -621 198 -336 360 -612 360 -615 0 -2 -170 -4 -378 -4 l-378 0 -366
620 -366 620 557 980 556 979 382 1 382 0 -58 -102z m-1915 -840 c110 -205
199 -377 199 -384 0 -6 -121 -212 -270 -458 l-270 -446 -362 0 -363 0 42 68
c186 303 501 829 501 837 0 6 -86 171 -192 368 -106 197 -195 365 -198 373 -4
12 47 14 355 14 l359 0 199 -372z"/>
</g>
</svg>
